<svg width="110" height="38" viewBox="0 0 110 38" fill="none" xmlns="http://www.w3.org/2000/svg">
<g clip-path="url(#clip0_4529_19166)">
<g clip-path="url(#clip1_4529_19166)">
<path d="M37.0103 37.9801C36.9637 37.9868 36.9183 37.9995 36.8723 37.9995C24.5967 38.0001 12.3216 38.0001 0.0347495 38.0001C0.0217831 37.9319 0.00586977 37.8781 0.00292286 37.8232C-0.00238159 37.7363 0.00115471 37.6493 0.00115471 37.5624C0.00115471 25.2086 0.00115471 12.8543 0.00115471 0.500499C0.00115471 0.367091 0.004691 0.233684 0.00704853 0.0839778C0.0777744 0.074923 0.130819 0.0646609 0.184453 0.0628499C0.269324 0.059228 0.354195 0.0616426 0.439066 0.0616426C12.4984 0.0616426 24.5572 0.0616426 36.6165 0.0628499C36.7468 0.0628499 36.88 0.0405147 37.012 0.0875997C37.022 0.114161 37.0403 0.140721 37.0403 0.167282C37.0415 12.7432 37.0415 25.3197 37.0403 37.8956C37.0403 37.9222 37.0226 37.9488 37.0103 37.9814V37.9801ZM8.58787 28.434C8.60084 28.539 8.61498 28.7521 8.65565 28.9592C9.08354 31.1232 11.5118 32.1742 13.3259 30.9838C13.8404 30.6464 14.2106 30.1846 14.4811 29.6268C15.8986 26.7051 17.3208 23.7864 18.7412 20.8666C18.8042 20.7374 18.8791 20.6161 18.8543 20.4579C18.8461 20.4078 18.8779 20.3456 18.9032 20.2955C18.9922 20.1186 18.9834 19.94 18.915 19.7631C18.8702 19.6472 18.8196 19.5301 18.7518 19.4275C18.4388 18.9536 18.0074 18.6403 17.4746 18.4761C17.1793 18.3856 17.1298 18.4061 16.9011 18.6355C16.8876 18.6487 16.874 18.6626 16.8604 18.6759C15.2337 20.3142 13.6065 21.9519 11.9798 23.5903C11.1529 24.4227 10.3224 25.2521 9.49964 26.0888C8.89494 26.7033 8.59848 27.4548 8.58787 28.4346V28.434ZM29.0724 17.0225C29.0165 16.9175 28.9687 16.8239 28.9174 16.7327C28.2774 15.5846 27.6367 14.4371 26.9966 13.2889C26.188 11.8395 25.3806 10.3896 24.5707 8.94079C24.5307 8.86955 24.5148 8.77357 24.4063 8.74158C24.315 8.87136 24.2212 9.00357 24.1293 9.13697C22.8881 10.9334 21.6468 12.7293 20.4068 14.5264C20.3484 14.6109 20.2718 14.687 20.2488 14.8017C20.306 14.9031 20.3608 15.0039 20.4185 15.1029C21.2401 16.5221 22.0617 17.9419 22.8845 19.3605C23.0625 19.6677 23.2275 19.984 23.425 20.2774C23.9708 21.0881 24.5301 21.8886 25.0847 22.692C25.1159 22.7367 25.1589 22.7729 25.2138 22.8315C26.5057 20.8859 27.787 18.9572 29.0724 17.0225ZM13.811 12.4734C14.052 12.6164 14.8819 12.9672 15.166 13.0511C16.577 13.4682 17.9879 13.8859 19.3995 14.303C19.4985 14.332 19.5975 14.3592 19.7131 14.3918C19.7761 14.303 19.8386 14.2197 19.8969 14.134C20.5282 13.2086 21.1606 12.2832 21.7894 11.356C22.4401 10.3974 23.0884 9.43699 23.7362 8.47537C23.7922 8.39267 23.87 8.31781 23.8841 8.2001C23.8322 8.17475 23.7916 8.15121 23.7486 8.1337C22.0058 7.42803 20.2629 6.72296 18.5201 6.0185C18.47 5.99797 18.4146 5.99073 18.3492 5.97383C16.8375 8.13913 15.331 10.2966 13.8116 12.4728L13.811 12.4734ZM24.1711 22.9003C24.147 22.8423 24.134 22.7989 24.1128 22.7608C24.0185 22.5936 23.9218 22.4282 23.8258 22.2622C22.4896 19.9551 21.1535 17.6473 19.8162 15.3401C19.6146 14.9924 19.7095 15.0751 19.3565 14.9701C17.7021 14.4769 16.0465 13.9873 14.3909 13.4972C14.3031 13.4712 14.2129 13.4513 14.0939 13.4211C14.1234 13.4851 14.134 13.5201 14.154 13.5491C14.6108 14.2065 16.3748 16.5293 16.5563 16.7116C16.8375 16.5341 17.1504 16.5052 17.474 16.5589C17.5854 16.5776 17.6956 16.6048 17.804 16.638C18.6062 16.8831 19.2911 17.3322 19.8964 17.9153C20.1586 18.1676 20.3897 18.4471 20.5724 18.7659C20.7174 19.0176 20.8252 19.2826 20.8512 19.5784C20.893 20.0637 20.6413 20.4579 20.1852 20.5883C20.0331 20.6317 19.8698 20.6342 19.7119 20.6547C19.6588 20.6619 19.5975 20.636 19.5492 20.712C19.5592 20.7362 19.5669 20.773 19.5869 20.8014C19.6529 20.8955 19.7331 20.9801 19.7903 21.0791C19.9429 21.3435 20.174 21.4757 20.4521 21.5753C21.5991 21.9845 22.7401 22.4119 23.8841 22.8303C23.969 22.861 24.0509 22.9166 24.1717 22.9003H24.1711ZM19.5156 19.984C19.6912 20.0239 19.8575 20.0196 20.0201 19.9587C20.1598 19.9062 20.2129 19.8265 20.2164 19.6756C20.2193 19.5367 20.1775 19.4093 20.1215 19.2862C20.0101 19.0387 19.8575 18.819 19.6789 18.6192C19.195 18.0777 18.6227 17.6612 17.9602 17.3829C17.7699 17.3032 17.5671 17.2525 17.3667 17.203C17.2777 17.1807 17.1793 17.1837 17.0868 17.1933C16.9542 17.2066 16.8982 17.2887 16.9412 17.4131C16.9854 17.5392 17.0479 17.6588 17.1062 17.7795C17.1422 17.8543 17.2058 17.8881 17.2866 17.9002C17.398 17.9165 17.5123 17.9292 17.6184 17.966C18.5791 18.2968 19.2787 18.8902 19.5162 19.9852L19.5156 19.984Z" fill="white"/>
</g>
<path d="M64.5689 37.7109C64.3137 37.7543 62.2414 37.7598 61.9668 37.7236C61.9079 37.6167 61.932 37.4984 61.932 37.3849C61.9303 36.1486 61.9308 34.9123 61.9308 33.6767C61.9308 33.1744 61.9332 32.6722 61.9303 32.1699C61.9273 31.7637 61.9008 31.3598 61.7906 30.9657C61.6951 30.6258 61.5389 30.324 61.2902 30.0722C60.7426 29.5163 59.7083 29.4239 59.0829 30.1284C58.76 30.4918 58.5973 30.9258 58.5095 31.3985C58.4511 31.7136 58.4411 32.0311 58.4411 32.3504C58.4411 34.0213 58.4411 35.6917 58.4411 37.3626C58.4411 37.4767 58.4364 37.5908 58.434 37.7133C58.3839 37.7266 58.3492 37.7435 58.315 37.7435C57.5134 37.7453 56.7124 37.7453 55.9109 37.7441C55.8838 37.7441 55.8567 37.7344 55.8119 37.726C55.8024 37.6753 55.7883 37.6221 55.7842 37.5678C55.7789 37.5008 55.7824 37.4326 55.7824 37.365C55.7824 34.0817 55.7824 30.7978 55.7824 27.5146C55.7824 27.4011 55.7877 27.287 55.7895 27.1958C55.8184 27.1687 55.8243 27.1602 55.8319 27.156C55.8396 27.1518 55.8496 27.1487 55.8584 27.1487C56.5745 27.1457 57.2912 27.1433 58.0073 27.1409C58.0539 27.1409 58.1004 27.1463 58.1382 27.1487C58.2242 27.2188 58.2107 27.3117 58.2207 27.395C58.2637 27.759 58.3038 28.123 58.345 28.4828C58.4334 28.5251 58.4488 28.4508 58.4753 28.408C58.7376 27.9836 59.0812 27.6468 59.5026 27.3914C60.0831 27.0401 60.712 26.9182 61.378 26.9779C62.1047 27.0431 62.7489 27.3087 63.2894 27.82C63.5127 28.0313 63.7002 28.2715 63.8546 28.5396C63.897 28.6132 63.94 28.6857 63.9925 28.7744C64.0709 28.7243 64.0945 28.65 64.1304 28.5885C64.3898 28.1412 64.7281 27.7711 65.1495 27.4796C65.6316 27.1463 66.162 26.9755 66.7437 26.9658C67.161 26.9592 67.5724 26.999 67.9744 27.1149C68.9757 27.4035 69.6995 28.0367 70.1622 28.9863C70.3956 29.465 70.5293 29.9769 70.6172 30.5026C70.7062 31.0375 70.7398 31.5759 70.7398 32.118C70.7386 33.8855 70.7398 35.6524 70.7392 37.4199C70.7392 37.5153 70.7339 37.6107 70.7309 37.7127C70.6838 37.7254 70.649 37.7435 70.6142 37.7435C69.8127 37.7447 69.0117 37.7447 68.2101 37.7435C68.183 37.7435 68.1553 37.7332 68.1264 37.7278C68.0557 37.6324 68.0852 37.5225 68.0852 37.4199C68.0828 36.4541 68.084 35.4882 68.0834 34.5224C68.0834 33.7594 68.0834 32.9963 68.0834 32.2333C68.0834 31.8168 68.0616 31.4033 67.9514 30.9995C67.8612 30.6693 67.7145 30.3723 67.4805 30.1205C66.8993 29.4958 65.9434 29.4813 65.3469 29.9847C65.0463 30.2382 64.8436 30.5552 64.7304 30.9349C64.6114 31.3357 64.5689 31.7474 64.5689 32.1645C64.5689 33.8934 64.5689 35.6216 64.5689 37.3505C64.5689 37.4658 64.5689 37.5817 64.5689 37.7109Z" fill="white"/>
<path d="M105.073 37.7193C104.838 37.7567 102.749 37.7567 102.498 37.7193C102.445 37.636 102.468 37.537 102.468 37.4434C102.466 36.6321 102.467 35.8214 102.467 35.0101C102.467 34.1118 102.465 33.2142 102.467 32.316C102.467 31.9664 102.432 31.6218 102.347 31.2837C102.241 30.8642 102.045 30.499 101.739 30.1911C100.883 29.3267 99.175 29.3985 98.5084 30.7881C98.331 31.1575 98.2555 31.5548 98.2278 31.9616C98.2166 32.1252 98.2184 32.29 98.2178 32.4536C98.2172 34.0949 98.2178 35.7369 98.2178 37.3782C98.2178 37.4838 98.2178 37.5895 98.2178 37.7054C98.1624 37.7211 98.12 37.7434 98.0764 37.7434C97.2848 37.7458 96.4927 37.7452 95.7012 37.744C95.6652 37.744 95.6298 37.7325 95.585 37.7253C95.5768 37.6812 95.5632 37.645 95.5632 37.6088C95.5621 32.3956 95.5626 27.1819 95.5626 21.9561C95.6204 21.9434 95.664 21.9253 95.707 21.9247C96.4892 21.9229 97.2719 21.9229 98.054 21.9235C98.0988 21.9235 98.1436 21.9349 98.206 21.9434C98.2278 22.2621 98.2143 22.5688 98.2166 22.8754C98.219 23.1845 98.2166 23.4936 98.2166 23.8026V27.5399C98.2166 27.8483 98.2166 28.1568 98.2166 28.4604C98.2927 28.4906 98.3098 28.4369 98.3369 28.4025C98.4618 28.2455 98.5773 28.0795 98.7123 27.9322C99.2693 27.3268 99.9636 27.0201 100.769 26.9718C101.251 26.9428 101.73 26.9815 102.197 27.1143C103.206 27.401 103.947 28.03 104.443 28.9675C104.701 29.4558 104.852 29.9822 104.954 30.5255C105.065 31.1256 105.104 31.7322 105.105 32.3407C105.109 34.0303 105.107 35.7206 105.105 37.4102C105.105 37.5134 105.13 37.6227 105.071 37.7175L105.073 37.7193Z" fill="white"/>
<path d="M83.0267 37.7453C82.2594 37.7453 81.515 37.7453 80.7712 37.7447C80.7352 37.7447 80.6993 37.7327 80.6515 37.7242C80.5596 37.1791 80.5549 36.6286 80.4694 36.0853C80.3545 36.1143 80.3333 36.209 80.2855 36.2748C79.692 37.0904 78.9176 37.6282 77.9392 37.816C76.7993 38.0345 75.7225 37.8311 74.7442 37.1852C73.7894 36.5549 73.0892 35.6905 72.6807 34.6069C72.1243 33.1316 72.132 31.6418 72.7072 30.1713C73.0886 29.1976 73.7186 28.4092 74.5526 27.8038C75.5722 27.0631 76.7133 26.8114 77.9368 27.0432C78.9022 27.2261 79.6755 27.7573 80.2661 28.5626C80.3168 28.6314 80.3663 28.7014 80.4176 28.7702C80.4223 28.7763 80.4352 28.7757 80.4565 28.7823C80.5437 28.5245 80.5177 28.2511 80.5572 27.9873C80.5973 27.7211 80.6115 27.4512 80.6374 27.1717C80.7005 27.1603 80.7541 27.1428 80.8077 27.1428C81.4955 27.141 82.1839 27.1416 82.8717 27.1422C82.9183 27.1422 82.9643 27.1506 83.0244 27.1561C83.035 27.2122 83.0491 27.2665 83.0539 27.3215C83.0592 27.3885 83.0556 27.4567 83.0556 27.5243C83.0556 30.807 83.0556 34.0902 83.0556 37.3729C83.0556 37.4864 83.0686 37.6023 83.0279 37.7466L83.0267 37.7453ZM77.674 35.2106C79.1439 35.2492 80.4016 33.9683 80.3993 32.4169C80.3975 30.8685 79.1386 29.6208 77.6663 29.6214C76.1858 29.6214 74.9481 30.9247 74.9534 32.4374C74.9587 33.923 76.2164 35.2595 77.674 35.2106Z" fill="white"/>
<path d="M91.9214 30.2938C91.8996 30.2859 91.8884 30.2847 91.8819 30.2787C91.454 29.8573 90.9301 29.6304 90.3649 29.4849C89.9046 29.3666 89.4378 29.3165 88.9633 29.3485C88.7175 29.3654 88.4777 29.4112 88.2508 29.5151C88.1199 29.5748 88.0014 29.6521 87.9148 29.7722C87.7533 29.9968 87.7763 30.2461 87.995 30.4073C88.1229 30.5014 88.2714 30.5733 88.4199 30.63C88.9415 30.8304 89.4837 30.9572 90.0254 31.0858C90.5953 31.2204 91.1541 31.3924 91.7022 31.6013C92.2627 31.8144 92.733 32.1585 93.1226 32.6203C93.5057 33.0742 93.712 33.6042 93.7562 34.1994C93.7839 34.5761 93.7756 34.951 93.7025 35.324C93.557 36.0677 93.191 36.6653 92.5898 37.1096C92.0611 37.5002 91.4706 37.7447 90.8328 37.869C89.6517 38.0996 88.4883 38.0042 87.339 37.662C86.683 37.4664 86.0624 37.1929 85.5072 36.7788C85.3628 36.6708 85.226 36.5519 85.0881 36.4347C85.0086 36.3671 84.9337 36.2941 84.8477 36.2156C84.883 36.1589 84.9013 36.1142 84.9319 36.084C85.4659 35.5522 86.0011 35.0216 86.5368 34.4916C86.5569 34.4717 86.5822 34.4584 86.6081 34.4397C86.6341 34.4493 86.6653 34.4523 86.6842 34.4699C87.1692 34.9123 87.7521 35.1508 88.3698 35.3126C88.9321 35.4598 89.5026 35.5039 90.0808 35.4345C90.2977 35.4085 90.5081 35.3608 90.7043 35.2594C90.8511 35.1834 90.9702 35.0777 91.0409 34.9214C91.1523 34.6727 91.1128 34.4379 90.9018 34.2731C90.7763 34.1753 90.6319 34.0914 90.4839 34.0382C90.1291 33.9109 89.7696 33.7919 89.4059 33.6942C88.8507 33.5438 88.2873 33.4243 87.7427 33.2342C87.5641 33.172 87.385 33.1122 87.2087 33.044C86.716 32.8527 86.2922 32.5563 85.9256 32.1681C85.4518 31.6665 85.2125 31.0628 85.1624 30.3753C85.1376 30.0366 85.1535 29.6992 85.2319 29.3678C85.3622 28.816 85.6404 28.3542 86.0512 27.9757C86.5392 27.5266 87.1127 27.2471 87.7457 27.0902C88.2897 26.9556 88.8425 26.9067 89.4012 26.926C90.082 26.9489 90.7533 27.0365 91.4034 27.258C92.1224 27.5031 92.7566 27.887 93.2858 28.4466C93.3507 28.5154 93.4102 28.5891 93.4803 28.6693C93.3318 28.8824 93.1426 29.0412 92.9752 29.2205C92.7996 29.4088 92.6198 29.5935 92.4395 29.7777C92.2674 29.9533 92.1065 30.1417 91.9226 30.295L91.9214 30.2938Z" fill="white"/>
<path d="M53.7116 28.682C53.1776 29.2355 52.6684 29.7637 52.1503 30.301C52.0955 30.2617 52.0478 30.2346 52.0083 30.1983C51.7537 29.9611 51.4608 29.7885 51.1407 29.6653C50.5154 29.4257 49.8712 29.3055 49.2017 29.3472C48.9836 29.3605 48.7708 29.3997 48.5657 29.4746C48.4231 29.5271 48.2899 29.5995 48.182 29.713C48.0123 29.8911 47.9262 30.2255 48.2439 30.4319C48.393 30.5291 48.5598 30.6046 48.7272 30.665C49.2164 30.8412 49.7203 30.965 50.226 31.0821C50.7965 31.2143 51.3547 31.3881 51.9034 31.594C52.4079 31.7835 52.8411 32.0817 53.2154 32.4759C53.645 32.9287 53.899 33.4683 53.9668 34.0925C54.0187 34.5646 53.9986 35.036 53.8814 35.5014C53.7116 36.1745 53.3503 36.7099 52.8016 37.1144C52.2806 37.4983 51.6989 37.7398 51.0712 37.8653C49.9596 38.0875 48.8586 38.0163 47.7677 37.7217C47.3204 37.6009 46.8848 37.4464 46.4693 37.2363C46.0355 37.0166 45.6365 36.7456 45.2799 36.4099C45.2115 36.3453 45.1479 36.2753 45.0742 36.1993C45.0984 36.1588 45.1119 36.1226 45.1367 36.0984C45.6772 35.5594 46.2182 35.0221 46.7604 34.4849C46.7799 34.4656 46.807 34.4541 46.8323 34.4372C46.8583 34.4493 46.8889 34.4553 46.9084 34.4734C47.3858 34.9099 47.9598 35.1453 48.5675 35.3065C49.138 35.458 49.7186 35.5051 50.3056 35.4332C50.5219 35.4067 50.7329 35.359 50.928 35.2557C51.0918 35.1688 51.2185 35.0463 51.281 34.8604C51.357 34.6346 51.3205 34.4336 51.136 34.2875C51.0111 34.1885 50.8696 34.1016 50.7223 34.0448C50.4317 33.9325 50.1352 33.8341 49.8364 33.7496C49.3372 33.6084 48.8321 33.4901 48.3329 33.3476C48.0341 33.2625 47.7394 33.158 47.4477 33.0488C46.906 32.846 46.4487 32.5152 46.0632 32.0757C45.6571 31.6133 45.4426 31.067 45.3878 30.4537C45.3559 30.0969 45.363 29.7396 45.4438 29.3876C45.577 28.8039 45.874 28.3222 46.3149 27.931C46.7952 27.5048 47.354 27.2374 47.9681 27.0865C48.5492 26.9434 49.1404 26.8982 49.7362 26.9271C50.3781 26.9585 51.0117 27.0467 51.6246 27.2567C52.3336 27.4994 52.9607 27.8779 53.4865 28.4266C53.5584 28.5015 53.6244 28.583 53.711 28.6814L53.7116 28.682Z" fill="white"/>
<path d="M107.158 27.1711C107.422 27.133 109.007 27.1167 109.649 27.1415C109.694 27.1433 109.739 27.1536 109.795 27.162C109.802 27.2188 109.81 27.2646 109.812 27.3111C109.841 28.181 109.822 37.4483 109.789 37.7175C109.742 37.7266 109.69 37.7453 109.637 37.7453C108.865 37.7471 108.092 37.7465 107.32 37.7459C107.283 37.7459 107.245 37.7392 107.193 37.7344C107.181 37.6813 107.164 37.6288 107.159 37.575C107.154 37.508 107.158 37.4398 107.158 37.3728C107.158 34.0823 107.158 30.7918 107.158 27.5013C107.158 27.3962 107.158 27.2912 107.158 27.1717V27.1711Z" fill="white"/>
<path d="M108.47 24.7239C107.732 24.7505 106.964 24.0508 106.965 23.1653C106.965 22.3365 107.65 21.5952 108.498 21.6C109.361 21.6048 110.016 22.4047 110.003 23.1949C109.991 23.9832 109.282 24.7668 108.469 24.7239H108.47Z" fill="white"/>
<path d="M79.7264 1.71204H82.2661C82.2767 1.78327 82.292 1.84725 82.2949 1.91124C82.2997 2.00783 82.2967 2.10441 82.2967 2.201C82.2967 5.88087 82.2967 9.56074 82.2979 13.2406C82.2979 13.4235 82.3061 13.6076 82.3232 13.7899C82.345 14.0242 82.4222 14.2415 82.5554 14.4352C82.7275 14.6864 82.9627 14.8318 83.2615 14.8644C83.3458 14.8735 83.4307 14.8783 83.5156 14.8789C84.1285 14.8801 84.7415 14.8801 85.3538 14.8789C85.4169 14.8789 85.4794 14.8681 85.5389 14.862C85.5519 14.7763 85.4941 14.7467 85.4576 14.7087C84.943 14.169 84.7091 13.5153 84.7014 12.7692C84.6802 10.6491 86.0092 8.72529 87.9619 8.10895C89.7035 7.55903 91.6791 7.94114 93.0759 9.69053C93.7248 10.503 94.0714 11.4339 94.1032 12.4836C94.115 12.8694 94.1044 13.2563 94.1115 13.6426C94.1144 13.7966 94.1238 13.9523 94.1527 14.1026C94.2235 14.4715 94.5064 14.8614 95.0203 14.8729C95.3309 14.8795 95.6427 14.8826 95.9533 14.8711C96.4071 14.8548 96.7112 14.6091 96.878 14.1853C96.927 14.0616 96.9606 13.9276 96.9782 13.7954C97 13.6336 97.0053 13.4682 97.0053 13.3046C97.0071 11.624 97.0059 9.94346 97.0071 8.26289C97.0071 8.1488 96.9877 8.03108 97.0372 7.91216C97.0708 7.90492 97.1067 7.89043 97.1427 7.89043C97.943 7.88923 98.7434 7.88922 99.5633 7.88922C99.5727 7.97796 99.5868 8.05161 99.5868 8.12525C99.5886 8.61784 99.588 9.11042 99.588 9.603C99.588 10.8006 99.5857 11.9983 99.5904 13.1959C99.591 13.3879 99.6057 13.5835 99.6434 13.7706C99.6752 13.9288 99.7324 14.0881 99.8108 14.2282C100.05 14.655 100.411 14.8819 100.901 14.8765C101.389 14.8717 101.746 14.6387 101.991 14.2179C102.108 14.0163 102.17 13.7924 102.185 13.5575C102.194 13.4133 102.197 13.2678 102.197 13.1235C102.197 11.5009 102.197 9.87826 102.198 8.25564C102.198 8.14216 102.181 8.02565 102.22 7.92001C102.466 7.87594 104.528 7.87655 104.78 7.92122C104.813 8.0172 104.799 8.12405 104.799 8.22727C104.8 9.71467 104.799 11.2021 104.799 12.6895C104.799 12.8826 104.793 13.0764 104.802 13.269C104.809 13.4422 104.825 13.6161 104.854 13.7869C104.873 13.8998 104.911 14.0127 104.959 14.1159C105.171 14.568 105.509 14.8427 106.011 14.8735C106.519 14.9043 106.908 14.696 107.18 14.2596C107.299 14.0694 107.367 13.8582 107.388 13.6342C107.404 13.4712 107.409 13.3064 107.409 13.1428C107.41 11.5202 107.41 9.89758 107.41 8.27496C107.41 8.16026 107.415 8.04618 107.418 7.92424C107.467 7.91035 107.502 7.89224 107.536 7.89224C108.309 7.89043 109.082 7.89043 109.855 7.89104C109.891 7.89104 109.926 7.9025 109.977 7.91096C109.984 7.97193 109.994 8.02746 109.994 8.08239C109.994 9.84989 109.994 11.6174 109.992 13.3849C109.991 13.8714 109.92 14.3495 109.763 14.8077C109.322 16.0929 108.489 16.9815 107.2 17.3744C106.519 17.5821 105.824 17.5869 105.133 17.4046C104.549 17.2507 104.065 16.9308 103.684 16.4502C103.631 16.3832 103.578 16.3162 103.526 16.251C103.419 16.2643 103.389 16.3573 103.338 16.4195C102.91 16.9386 102.378 17.2821 101.729 17.4318C101.11 17.5748 100.493 17.564 99.8827 17.3889C99.3528 17.2374 98.9032 16.9458 98.5277 16.5341C98.4647 16.4653 98.3998 16.3983 98.3256 16.3205C98.2772 16.3772 98.2401 16.4182 98.2059 16.4617C97.6678 17.1426 96.9564 17.4722 96.1166 17.5163C95.6934 17.5386 95.2684 17.5254 94.8441 17.5181C94.5983 17.5139 94.3567 17.4638 94.1221 17.3889C93.5657 17.2108 93.1437 16.8607 92.8579 16.3404C92.8072 16.2486 92.7612 16.1538 92.7129 16.0597C92.5997 16.0766 92.5561 16.1726 92.493 16.2378C92.0469 16.6959 91.5341 17.0479 90.9382 17.2664C90.5092 17.4239 90.0654 17.5072 89.6104 17.5223C89.5066 17.526 89.4029 17.526 89.2992 17.526C87.3854 17.526 85.4711 17.5247 83.5574 17.5272C83.2262 17.5272 82.8973 17.5103 82.5737 17.4378C81.435 17.1837 80.6376 16.4865 80.1237 15.4331C79.8761 14.9254 79.763 14.3785 79.727 13.8147C79.7176 13.6704 79.7193 13.5249 79.7188 13.3801C79.7188 9.61326 79.7188 5.84646 79.7188 2.07966C79.7188 1.96617 79.7235 1.85208 79.727 1.71264L79.7264 1.71204ZM87.287 12.7022C87.2522 13.8751 88.243 14.8771 89.3941 14.8844C90.5581 14.8916 91.517 13.8286 91.517 12.7058C91.517 11.6107 90.6052 10.5169 89.3976 10.5236C88.1829 10.5296 87.2528 11.5782 87.287 12.7022Z" fill="white"/>
<path d="M45.4489 9.81366C46.2811 9.81366 47.0821 9.81366 47.8825 9.81427C47.9178 9.81427 47.9538 9.82755 48.008 9.83841C48.0127 9.93741 48.0204 10.0316 48.021 10.1258C48.0222 10.6763 48.0222 11.2268 48.021 11.7773C48.021 12.078 48.041 12.3762 48.1076 12.6695C48.3345 13.6746 48.9269 14.3441 49.8781 14.6773C50.1823 14.7841 50.497 14.8475 50.8194 14.8614C51.0451 14.8711 51.2714 14.8777 51.4978 14.8783C52.073 14.8807 52.6482 14.8795 53.2235 14.8783C53.326 14.8783 53.4292 14.8741 53.517 14.8723C53.5983 14.7817 53.5741 14.6912 53.5747 14.6073C53.5783 13.9891 53.5765 13.371 53.5806 12.7529C53.5842 12.2385 53.6519 11.7315 53.7869 11.2365C54.2455 9.55047 55.3193 8.50856 56.9643 8.07333C57.4505 7.94475 57.9462 7.88861 58.4483 7.88801C59.4385 7.8868 60.4287 7.8874 61.4188 7.88801C61.4919 7.88801 61.5656 7.89887 61.6416 7.90431C61.6899 8.01658 61.6705 8.12403 61.6705 8.22726C61.6717 9.97544 61.6717 11.7242 61.6711 13.4724C61.6711 13.6758 61.6711 13.8793 61.7318 14.0755C61.7654 14.1853 61.8025 14.297 61.8561 14.3972C62.0076 14.6785 62.2416 14.8499 62.5587 14.8638C62.8787 14.8777 63.1999 14.8795 63.5194 14.8668C63.9249 14.8505 64.206 14.6296 64.384 14.2632C64.4954 14.0338 64.5308 13.7857 64.5467 13.534C64.5526 13.438 64.549 13.3408 64.549 13.2442C64.549 11.583 64.549 9.92111 64.549 8.25986C64.549 8.14637 64.5555 8.03288 64.5585 7.92483C64.7948 7.87714 66.7993 7.8711 67.1028 7.91577C67.1087 7.99425 67.1205 8.07755 67.1205 8.16146C67.1223 8.78926 67.1211 9.41706 67.1217 10.0449C67.1217 11.0687 67.1199 12.0931 67.1235 13.1169C67.124 13.2998 67.1323 13.4851 67.1624 13.665C67.1889 13.8249 67.2307 13.9885 67.3003 14.1334C67.5331 14.6169 67.9097 14.8837 68.449 14.8747C68.9859 14.865 69.3584 14.5898 69.5824 14.1038C69.6496 13.9583 69.6849 13.7929 69.7097 13.6324C69.7362 13.4615 69.7409 13.2859 69.7409 13.1126C69.7433 11.4997 69.7421 9.8861 69.7427 8.27314C69.7427 8.15844 69.7468 8.04435 69.7492 7.91819C69.8069 7.90612 69.8505 7.88921 69.8947 7.88921C70.6586 7.8874 71.4224 7.8874 72.1863 7.88861C72.2234 7.88861 72.2599 7.89706 72.3112 7.9037C72.3224 7.95863 72.3395 8.01176 72.343 8.06608C72.3483 8.15241 72.3448 8.23994 72.3448 8.32686C72.3448 9.94948 72.3448 11.5727 72.3448 13.1953C72.3448 13.4271 72.3466 13.6595 72.4155 13.8841C72.4379 13.9577 72.4574 14.0332 72.4898 14.1026C72.7055 14.5662 73.0485 14.8475 73.5636 14.8729C74.0964 14.8994 74.4907 14.6658 74.7536 14.195C74.898 13.9366 74.9363 13.6493 74.954 13.3589C74.9593 13.2726 74.9558 13.1851 74.9558 13.0981C74.9558 11.4852 74.9558 9.87161 74.9558 8.25865C74.9558 8.14516 74.9452 8.02986 74.9717 7.92362C75.211 7.87835 77.2231 7.87412 77.5043 7.91698C77.5461 8.01176 77.5272 8.11921 77.5272 8.22183C77.529 9.10075 77.5284 9.97967 77.5284 10.8592C77.5284 11.6608 77.5267 12.4625 77.5284 13.2648C77.5302 13.8696 77.45 14.4618 77.2243 15.022C76.7522 16.1961 75.943 17.0116 74.74 17.3732C74.077 17.5724 73.4021 17.5833 72.7273 17.4155C72.1309 17.267 71.6358 16.9495 71.2356 16.475C71.1743 16.4025 71.1136 16.3295 71.0429 16.245C70.991 16.3011 70.9444 16.3458 70.9044 16.3953C70.3167 17.1281 69.5452 17.4734 68.6346 17.5211C68.294 17.5392 67.9557 17.5181 67.6221 17.4426C67.0056 17.3032 66.4816 16.9965 66.052 16.5221C65.9954 16.4599 65.9382 16.3977 65.8687 16.3217C65.8221 16.3718 65.7814 16.4092 65.7478 16.452C65.2416 17.101 64.5714 17.4444 63.7752 17.5054C63.2029 17.5495 62.6259 17.5616 62.053 17.4783C60.6526 17.2742 59.7491 16.4593 59.2917 15.1059C59.1397 14.6556 59.0731 14.1865 59.0713 13.7109C59.0672 12.745 59.069 11.7792 59.0672 10.8127C59.0672 10.7089 59.0802 10.602 59.0436 10.4916C58.9016 10.4463 58.7601 10.4668 58.6216 10.4686C58.2621 10.4735 57.9067 10.5115 57.5625 10.6262C56.9242 10.8387 56.5051 11.2733 56.2994 11.9271C56.1851 12.2905 56.1574 12.6647 56.1574 13.0426C56.1568 14.4141 56.1574 15.7862 56.1562 17.1577C56.1562 17.2718 56.1774 17.3895 56.1209 17.5102C56.0596 17.5157 55.9953 17.5259 55.9311 17.5259C54.2902 17.5259 52.6494 17.529 51.0092 17.5223C50.3555 17.5199 49.7096 17.4288 49.0878 17.2193C47.2353 16.5951 46.0819 15.2985 45.6081 13.3656C45.4908 12.8869 45.4377 12.3967 45.4359 11.9017C45.4342 11.2932 45.4336 10.6847 45.4336 10.0763C45.4336 10.0008 45.4413 9.92534 45.4477 9.81427L45.4489 9.81366Z" fill="white"/>
<path d="M55.9081 21.038C55.9352 21.7594 55.2946 22.4832 54.4777 22.4723C53.7657 22.4626 53.0856 21.8499 53.082 21.0241C53.0785 20.1941 53.8082 19.5814 54.5213 19.5929C55.2521 19.6049 55.9429 20.2436 55.9081 21.038Z" fill="white"/>
<path d="M50.1278 22.4662C49.3722 22.4976 48.7292 21.8324 48.7227 21.0392C48.7151 20.1862 49.4058 19.5965 50.1101 19.5929C50.8115 19.5892 51.5252 20.1561 51.5358 21.006C51.5465 21.8421 50.8563 22.491 50.1284 22.4662H50.1278Z" fill="white"/>
<path d="M74.0123 4.06018C74.0417 4.78758 73.4264 5.47696 72.6396 5.47816C71.9783 5.47877 71.2551 4.90349 71.2657 4.05294C71.2752 3.27664 71.874 2.66393 72.6343 2.65729C73.4983 2.64944 74.0394 3.37202 74.0129 4.06018H74.0123Z" fill="white"/>
<path d="M69.1007 5.47214C68.3669 5.49749 67.7109 4.81415 67.7268 4.05355C67.7433 3.26216 68.3451 2.64764 69.1196 2.6579C69.8822 2.66816 70.4781 3.27846 70.4804 4.05838C70.4834 4.95662 69.7184 5.50473 69.1013 5.47214H69.1007Z" fill="white"/>
<path d="M70.8839 0.000637133C71.5323 -0.0229054 72.1317 0.531852 72.134 1.25684C72.1364 1.96493 71.5635 2.55349 70.8757 2.54504C70.1272 2.53598 69.6286 1.90034 69.625 1.27736C69.6209 0.539096 70.2221 -0.0223017 70.8834 3.34791e-05L70.8839 0.000637133Z" fill="white"/>
<path d="M8.58984 28.434C8.60045 27.4548 8.8975 26.7033 9.50162 26.0882C10.3244 25.2515 11.1548 24.4221 11.9817 23.5896C13.6084 21.9513 15.2357 20.3136 16.8624 18.6753C16.876 18.662 16.8895 18.6481 16.9031 18.6348C17.1318 18.4055 17.1813 18.3849 17.4766 18.4755C18.0094 18.6391 18.4408 18.9524 18.7537 19.4268C18.8215 19.5295 18.8722 19.6466 18.917 19.7625C18.9854 19.9393 18.9942 20.118 18.9052 20.2949C18.8799 20.345 18.8486 20.4072 18.8563 20.4573C18.8816 20.6154 18.8062 20.7368 18.7431 20.866C17.3221 23.7858 15.9005 26.7051 14.4831 29.6262C14.2126 30.1839 13.8424 30.6457 13.3279 30.9832C11.5138 32.1736 9.08492 31.1232 8.65762 28.9585C8.61695 28.7515 8.60281 28.539 8.58984 28.4334V28.434Z" fill="#070707"/>
<path d="M29.0697 17.023C27.7843 18.9578 26.503 20.887 25.2111 22.832C25.1562 22.7735 25.1132 22.7378 25.082 22.6926C24.5268 21.8891 23.9675 21.0881 23.4223 20.2779C23.2248 19.9846 23.0598 19.6683 22.8818 19.361C22.0596 17.9418 21.2374 16.5226 20.4158 15.1034C20.3587 15.0044 20.3033 14.9036 20.2461 14.8022C20.2685 14.6875 20.3457 14.6115 20.404 14.5269C21.6441 12.7299 22.8853 10.934 24.1266 9.13752C24.2185 9.00411 24.3128 8.87191 24.4036 8.74213C24.512 8.77412 24.528 8.8701 24.568 8.94133C25.3778 10.3901 26.1859 11.8401 26.9939 13.2894C27.634 14.4376 28.2747 15.5851 28.9147 16.7333C28.9654 16.8244 29.0137 16.918 29.0697 17.023Z" fill="#070707"/>
<path d="M13.8131 12.4733C15.3325 10.2971 16.839 8.13967 18.3507 5.97437C18.4168 5.99127 18.4716 5.99911 18.5217 6.01904C20.2651 6.7235 22.0079 7.42857 23.7501 8.13424C23.7931 8.15174 23.8338 8.17468 23.8856 8.20064C23.8715 8.31835 23.7937 8.39321 23.7377 8.47591C23.09 9.43692 22.4416 10.3973 21.791 11.3565C21.1615 12.2838 20.5297 13.2086 19.8985 14.1346C19.8401 14.2203 19.7776 14.3036 19.7146 14.3923C19.5996 14.3597 19.5 14.3332 19.401 14.3036C17.99 13.8865 16.5785 13.4687 15.1675 13.0516C14.8834 12.9677 14.0536 12.617 13.8125 12.4739L13.8131 12.4733Z" fill="#070707"/>
<path d="M24.1716 22.9002C24.0514 22.9171 23.9689 22.8616 23.884 22.8302C22.74 22.4118 21.5989 21.9845 20.452 21.5752C20.1738 21.4762 19.9428 21.3434 19.7901 21.079C19.733 20.98 19.6528 20.8949 19.5868 20.8013C19.5668 20.7729 19.5591 20.7361 19.5491 20.7119C19.5974 20.6353 19.6587 20.6612 19.7117 20.6546C19.8697 20.6335 20.033 20.6317 20.185 20.5882C20.6412 20.4578 20.8929 20.0636 20.851 19.5783C20.8257 19.2825 20.7172 19.0181 20.5722 18.7658C20.3889 18.447 20.1585 18.1675 19.8962 17.9152C19.2903 17.3321 18.6061 16.883 17.8039 16.6379C17.6961 16.6047 17.5853 16.5775 17.4739 16.5588C17.1503 16.5051 16.8373 16.5341 16.5562 16.7115C16.3747 16.5298 14.6106 14.2064 14.1539 13.549C14.1338 13.5206 14.1232 13.485 14.0938 13.421C14.2128 13.4512 14.303 13.4711 14.3908 13.4971C16.0464 13.9872 17.702 14.4768 19.3563 14.97C19.7094 15.075 19.6145 14.9923 19.8161 15.34C21.1534 17.6466 22.4895 19.9544 23.8256 22.2621C23.9217 22.4281 24.0184 22.5935 24.1127 22.7607C24.1345 22.7988 24.1474 22.8422 24.171 22.9002H24.1716Z" fill="#070707"/>
<path d="M19.5151 19.984C19.2775 18.8896 18.5779 18.2956 17.6172 17.9648C17.5112 17.9286 17.3968 17.9153 17.2854 17.899C17.2047 17.8869 17.141 17.8537 17.1051 17.7782C17.0473 17.6575 16.9842 17.538 16.94 17.4118C16.897 17.2875 16.953 17.2054 17.0856 17.1921C17.1782 17.183 17.2766 17.18 17.3656 17.2018C17.566 17.2513 17.7693 17.302 17.9591 17.3816C18.6221 17.6599 19.1938 18.0764 19.6777 18.6179C19.8563 18.8183 20.009 19.0381 20.1204 19.285C20.1758 19.4081 20.2182 19.5361 20.2152 19.6743C20.2123 19.8246 20.1593 19.9049 20.019 19.9574C19.8557 20.0184 19.6901 20.0226 19.5145 19.9828L19.5151 19.984Z" fill="#070707"/>
</g>
<defs>
<clipPath id="clip0_4529_19166">
<rect width="110" height="38" fill="white"/>
</clipPath>
<clipPath id="clip1_4529_19166">
<rect y="0.0575562" width="37.0412" height="37.9425" rx="4" fill="white"/>
</clipPath>
</defs>
</svg>
